<svg width="43" height="43" viewBox="0 0 43 43" fill="none" xmlns="http://www.w3.org/2000/svg">
<path d="M21.5 32.25L13.975 35.475C12.7806 35.9826 11.6459 35.8859 10.5709 35.1848C9.49587 34.4836 8.95837 33.4904 8.95837 32.2052L8.95837 8.95833C8.95837 7.97292 9.30954 7.12964 10.0119 6.4285C10.7142 5.72736 11.5575 5.37619 12.5417 5.375L30.4584 5.375C31.4438 5.375 32.2877 5.72617 32.99 6.4285C33.6923 7.13083 34.0429 7.97411 34.0417 8.95833V32.2052C34.0417 33.4892 33.5042 34.4824 32.4292 35.1848C31.3542 35.8871 30.2195 35.9838 29.025 35.475L21.5 32.25ZM21.5 28.3083L30.4584 32.1604V8.95833L12.5417 8.95833L12.5417 32.1604L21.5 28.3083ZM21.5 8.95833H12.5417L30.4584 8.95833L21.5 8.95833Z" fill="white"/>
</svg>
