<svg width="17" height="17" viewBox="0 0 17 17" fill="none" xmlns="http://www.w3.org/2000/svg">
<path fill-rule="evenodd" clip-rule="evenodd" d="M11.3332 4.95844C11.3334 5.46489 11.1979 5.96216 10.9408 6.39848C11.444 6.47413 11.9034 6.72786 12.2353 7.11354C12.5673 7.49921 12.7499 7.99122 12.7498 8.5001V8.64885L13.9632 7.90085C14.1241 7.80167 14.3086 7.74722 14.4976 7.74312C14.6866 7.73901 14.8733 7.78541 15.0384 7.87751C15.2034 7.96962 15.341 8.1041 15.4367 8.26708C15.5325 8.43007 15.5831 8.61565 15.5832 8.80469V12.4441C15.5832 12.6332 15.5327 12.8189 15.437 12.982C15.3413 13.145 15.2038 13.2796 15.0387 13.3718C14.8736 13.464 14.6868 13.5105 14.4978 13.5064C14.3087 13.5023 14.1242 13.4479 13.9632 13.3486L12.7498 12.6014V12.7501C12.7498 13.3137 12.526 13.8542 12.1274 14.2527C11.7289 14.6512 11.1884 14.8751 10.6248 14.8751H3.5415C2.97792 14.8751 2.43742 14.6512 2.0389 14.2527C1.64039 13.8542 1.4165 13.3137 1.4165 12.7501V8.5001C1.41645 8.12082 1.5179 7.74843 1.71034 7.4216C1.90278 7.09476 2.17919 6.82539 2.51088 6.64144C2.19627 6.14623 2.06748 5.55549 2.14741 4.97426C2.22734 4.39304 2.51081 3.859 2.94741 3.46709C3.38401 3.07519 3.94545 2.85082 4.5319 2.83389C5.11835 2.81695 5.69181 3.00854 6.1503 3.3746C6.48949 2.87132 6.98132 2.49025 7.55337 2.28751C8.12542 2.08477 8.74746 2.07108 9.32788 2.24845C9.90829 2.42582 10.4164 2.78488 10.7774 3.27275C11.1384 3.76062 11.3332 4.35152 11.3332 4.95844ZM8.49984 3.54177C8.12411 3.54177 7.76378 3.69102 7.4981 3.9567C7.23243 4.22238 7.08317 4.58271 7.08317 4.95844C7.08317 5.33416 7.23243 5.69449 7.4981 5.96017C7.76378 6.22585 8.12411 6.3751 8.49984 6.3751C8.87556 6.3751 9.2359 6.22585 9.50157 5.96017C9.76725 5.69449 9.9165 5.33416 9.9165 4.95844C9.9165 4.58271 9.76725 4.22238 9.50157 3.9567C9.2359 3.69102 8.87556 3.54177 8.49984 3.54177ZM4.604 6.3751C4.8858 6.3751 5.15605 6.26316 5.35531 6.0639C5.55456 5.86465 5.6665 5.59439 5.6665 5.3126C5.6665 5.03081 5.55456 4.76056 5.35531 4.5613C5.15605 4.36204 4.8858 4.2501 4.604 4.2501C4.32221 4.2501 4.05196 4.36204 3.8527 4.5613C3.65345 4.76056 3.5415 5.03081 3.5415 5.3126C3.5415 5.59439 3.65345 5.86465 3.8527 6.0639C4.05196 6.26316 4.32221 6.3751 4.604 6.3751Z" fill="#A39CFC"/>
</svg>
