<svg width="16" height="16" viewBox="0 0 16 16" fill="none" xmlns="http://www.w3.org/2000/svg">
<path d="M7.99992 1.33331C11.6819 1.33331 14.6666 4.31798 14.6666 7.99998C14.6666 11.682 11.6819 14.6666 7.99992 14.6666C4.31792 14.6666 1.33325 11.682 1.33325 7.99998C1.33325 4.31798 4.31792 1.33331 7.99992 1.33331ZM7.99992 2.66665C6.58543 2.66665 5.22888 3.22855 4.22868 4.22874C3.22849 5.22894 2.66659 6.58549 2.66659 7.99998C2.66659 9.41447 3.22849 10.771 4.22868 11.7712C5.22888 12.7714 6.58543 13.3333 7.99992 13.3333C9.41441 13.3333 10.771 12.7714 11.7712 11.7712C12.7713 10.771 13.3333 9.41447 13.3333 7.99998C13.3333 6.58549 12.7713 5.22894 11.7712 4.22874C10.771 3.22855 9.41441 2.66665 7.99992 2.66665ZM7.99992 3.99998C8.16321 4 8.32081 4.05995 8.44283 4.16846C8.56486 4.27696 8.64281 4.42648 8.66192 4.58865L8.66658 4.66665V7.72398L10.4713 9.52865C10.5908 9.64862 10.6602 9.8096 10.6654 9.9789C10.6706 10.1482 10.6111 10.3131 10.4991 10.4402C10.3871 10.5672 10.2309 10.6468 10.0623 10.6629C9.89365 10.679 9.72525 10.6303 9.59125 10.5266L9.52858 10.4713L7.52858 8.47131C7.42497 8.36761 7.35843 8.23265 7.33925 8.08731L7.33325 7.99998V4.66665C7.33325 4.48984 7.40349 4.32027 7.52851 4.19524C7.65354 4.07022 7.82311 3.99998 7.99992 3.99998Z" fill="white"/>
</svg>
