<svg width="14" height="15" viewBox="0 0 14 15" fill="none" xmlns="http://www.w3.org/2000/svg">
<path d="M6.99992 0.333313C10.6819 0.333313 13.6666 3.31798 13.6666 6.99998C13.6666 10.682 10.6819 13.6666 6.99992 13.6666C3.31792 13.6666 0.333252 10.682 0.333252 6.99998C0.333252 3.31798 3.31792 0.333313 6.99992 0.333313ZM6.99992 1.66665C5.58543 1.66665 4.22888 2.22855 3.22868 3.22874C2.22849 4.22894 1.66659 5.58549 1.66659 6.99998C1.66659 8.41447 2.22849 9.77102 3.22868 10.7712C4.22888 11.7714 5.58543 12.3333 6.99992 12.3333C8.41441 12.3333 9.77096 11.7714 10.7712 10.7712C11.7713 9.77102 12.3333 8.41447 12.3333 6.99998C12.3333 5.58549 11.7713 4.22894 10.7712 3.22874C9.77096 2.22855 8.41441 1.66665 6.99992 1.66665ZM6.99992 2.99998C7.16321 3 7.32081 3.05995 7.44283 3.16846C7.56486 3.27696 7.64281 3.42648 7.66192 3.58865L7.66658 3.66665V6.72398L9.47125 8.52865C9.59082 8.64862 9.66023 8.8096 9.6654 8.9789C9.67057 9.1482 9.61111 9.31312 9.49909 9.44016C9.38706 9.56721 9.23088 9.64685 9.06227 9.66291C8.89365 9.67897 8.72525 9.63025 8.59125 9.52665L8.52858 9.47131L6.52858 7.47131C6.42497 7.36761 6.35843 7.23265 6.33925 7.08731L6.33325 6.99998V3.66665C6.33325 3.48984 6.40349 3.32027 6.52851 3.19524C6.65354 3.07022 6.82311 2.99998 6.99992 2.99998Z" fill="white"/>
</svg>
