<svg width="48" height="49" viewBox="0 0 48 49" fill="none" xmlns="http://www.w3.org/2000/svg">
<path fill-rule="evenodd" clip-rule="evenodd" d="M28 8.16675C29.5913 8.16675 31.1174 8.81206 32.2426 9.96072C33.3679 11.1094 34 12.6673 34 14.2917H40C41.0609 14.2917 42.0783 14.722 42.8284 15.4877C43.5786 16.2535 44 17.2921 44 18.3751V38.7917C44 39.8747 43.5786 40.9133 42.8284 41.6791C42.0783 42.4449 41.0609 42.8751 40 42.8751H8C6.93913 42.8751 5.92172 42.4449 5.17157 41.6791C4.42143 40.9133 4 39.8747 4 38.7917V18.3751C4 17.2921 4.42143 16.2535 5.17157 15.4877C5.92172 14.722 6.93913 14.2917 8 14.2917H14C14 12.6673 14.6321 11.1094 15.7574 9.96072C16.8826 8.81206 18.4087 8.16675 20 8.16675H28ZM30 18.3751H18V38.7917H30V18.3751ZM40 18.3751H34V38.7917H40V18.3751ZM14 18.3751H8V38.7917H14V18.3751ZM28 12.2501H20C19.5101 12.2501 19.0373 12.4337 18.6713 12.766C18.3052 13.0983 18.0713 13.5562 18.014 14.0529L18 14.2917H30C29.9999 13.7917 29.8201 13.309 29.4946 12.9353C29.1691 12.5616 28.7205 12.3229 28.234 12.2644L28 12.2501Z" fill="#9798F9"/>
</svg>
