<svg width="34" height="29" viewBox="0 0 34 29" fill="none" xmlns="http://www.w3.org/2000/svg">
<path fill-rule="evenodd" clip-rule="evenodd" d="M20.3333 0.666668C21.6593 0.666668 22.9311 1.19345 23.8688 2.13113C24.8065 3.06882 25.3333 4.34059 25.3333 5.66667H30.3333C31.2173 5.66667 32.0652 6.01786 32.6903 6.64298C33.3154 7.2681 33.6666 8.11595 33.6666 9V25.6667C33.6666 26.5507 33.3154 27.3986 32.6903 28.0237C32.0652 28.6488 31.2173 29 30.3333 29H3.66659C2.78253 29 1.93468 28.6488 1.30956 28.0237C0.684441 27.3986 0.333252 26.5507 0.333252 25.6667V9C0.333252 8.11595 0.684441 7.2681 1.30956 6.64298C1.93468 6.01786 2.78253 5.66667 3.66659 5.66667H8.66658C8.66658 4.34059 9.19337 3.06882 10.1311 2.13113C11.0687 1.19345 12.3405 0.666668 13.6666 0.666668H20.3333ZM21.9999 9H11.9999V25.6667H21.9999V9ZM30.3333 9H25.3333V25.6667H30.3333V9ZM8.66658 9H3.66659V25.6667H8.66658V9ZM20.3333 4H13.6666C13.2584 4.00006 12.8644 4.14993 12.5593 4.42119C12.2542 4.69246 12.0593 5.06625 12.0116 5.47167L11.9999 5.66667H21.9999C21.9999 5.25845 21.85 4.86444 21.5787 4.55938C21.3075 4.25432 20.9337 4.05943 20.5283 4.01167L20.3333 4Z" fill="white"/>
</svg>
