<svg width="14" height="14" viewBox="0 0 14 14" fill="none" xmlns="http://www.w3.org/2000/svg">
<path d="M7.00083 5.00004C6.4704 5.00004 5.96169 5.21075 5.58662 5.58583C5.21154 5.9609 5.00083 6.46961 5.00083 7.00004C5.00083 7.53047 5.21154 8.03918 5.58662 8.41426C5.96169 8.78933 6.4704 9.00004 7.00083 9.00004C7.53126 9.00004 8.03997 8.78933 8.41504 8.41426C8.79012 8.03918 9.00083 7.53047 9.00083 7.00004C9.00083 6.46961 8.79012 5.9609 8.41504 5.58583C8.03997 5.21075 7.53126 5.00004 7.00083 5.00004ZM7.00083 3.66671C7.88488 3.66671 8.73273 4.0179 9.35785 4.64302C9.98297 5.26814 10.3342 6.11599 10.3342 7.00004C10.3342 7.8841 9.98297 8.73194 9.35785 9.35706C8.73273 9.98218 7.88488 10.3334 7.00083 10.3334C6.11678 10.3334 5.26893 9.98218 4.64381 9.35706C4.01869 8.73194 3.6675 7.8841 3.6675 7.00004C3.6675 6.11599 4.01869 5.26814 4.64381 4.64302C5.26893 4.0179 6.11678 3.66671 7.00083 3.66671ZM11.3342 3.50004C11.3342 3.72105 11.2464 3.93302 11.0901 4.0893C10.9338 4.24558 10.7218 4.33337 10.5008 4.33337C10.2798 4.33337 10.0679 4.24558 9.91157 4.0893C9.75529 3.93302 9.6675 3.72105 9.6675 3.50004C9.6675 3.27903 9.75529 3.06707 9.91157 2.91079C10.0679 2.7545 10.2798 2.66671 10.5008 2.66671C10.7218 2.66671 10.9338 2.7545 11.0901 2.91079C11.2464 3.06707 11.3342 3.27903 11.3342 3.50004ZM7.00083 1.66671C5.3515 1.66671 5.08216 1.67137 4.31483 1.70537C3.79216 1.73004 3.4415 1.80004 3.11616 1.92671C2.84405 2.02695 2.59798 2.18713 2.39616 2.39537C2.18768 2.59712 2.02727 2.8432 1.92683 3.11537C1.80016 3.44204 1.73016 3.79204 1.70616 4.31404C1.6715 5.05004 1.66683 5.30737 1.66683 7.00004C1.66683 8.65004 1.6715 8.91871 1.7055 9.68604C1.73016 10.208 1.80016 10.5594 1.92616 10.884C2.0395 11.174 2.17283 11.3827 2.39416 11.604C2.61883 11.828 2.8275 11.962 3.11416 12.0727C3.4435 12.2 3.79416 12.2707 4.31416 12.2947C5.05016 12.3294 5.3075 12.3334 7.00016 12.3334C8.65016 12.3334 8.91883 12.3287 9.68616 12.2947C10.2075 12.27 10.5582 12.2 10.8842 12.074C11.1563 11.9738 11.4023 11.8136 11.6042 11.6054C11.8288 11.3814 11.9628 11.1727 12.0735 10.8854C12.2002 10.5574 12.2708 10.2067 12.2948 9.68537C12.3295 8.95004 12.3335 8.69204 12.3335 7.00004C12.3335 5.35071 12.3288 5.08137 12.2948 4.31404C12.2702 3.79271 12.1995 3.44071 12.0735 3.11537C11.9732 2.84326 11.8131 2.59719 11.6048 2.39537C11.4031 2.18689 11.157 2.02648 10.8848 1.92604C10.5582 1.79937 10.2075 1.72937 9.68616 1.70537C8.95083 1.67071 8.6935 1.66671 7.00016 1.66671M7.00016 0.333374C8.8115 0.333374 9.0375 0.340041 9.74883 0.373374C10.4582 0.406707 10.9422 0.518041 11.3668 0.683374C11.8068 0.852707 12.1775 1.08204 12.5482 1.45204C12.8873 1.7852 13.1496 2.18836 13.3168 2.63337C13.4815 3.05804 13.5935 3.54204 13.6268 4.25204C13.6582 4.96271 13.6668 5.18871 13.6668 7.00004C13.6668 8.81137 13.6602 9.03737 13.6268 9.74804C13.5935 10.4587 13.4815 10.9414 13.3168 11.3667C13.1496 11.8117 12.8873 12.2149 12.5482 12.548C12.215 12.8872 11.8118 13.1495 11.3668 13.3167C10.9422 13.4814 10.4582 13.5934 9.74883 13.6267C9.0375 13.658 8.8115 13.6667 7.00016 13.6667C5.18883 13.6667 4.96283 13.66 4.2515 13.6267C3.54216 13.5934 3.05883 13.4814 2.6335 13.3167C2.18848 13.1495 1.78532 12.8872 1.45216 12.548C1.11303 12.2149 0.850707 11.8117 0.683496 11.3667C0.518163 10.942 0.406829 10.458 0.373496 9.74804C0.341496 9.03737 0.333496 8.81137 0.333496 7.00004C0.333496 5.18871 0.340163 4.96271 0.373496 4.25204C0.406829 3.54137 0.518163 3.05871 0.683496 2.63337C0.850707 2.18836 1.11303 1.7852 1.45216 1.45204C1.78532 1.11291 2.18848 0.850585 2.6335 0.683374C3.05816 0.518041 3.5415 0.406707 4.2515 0.373374C4.9635 0.342041 5.1895 0.333374 7.00083 0.333374" fill="#A39CFC"/>
</svg>
