<svg width="17" height="17" viewBox="0 0 17 17" fill="none" xmlns="http://www.w3.org/2000/svg">
<path fill-rule="evenodd" clip-rule="evenodd" d="M8.34291 14.3844C9.10965 13.6887 9.81927 12.9325 10.4649 12.1231C11.8249 10.4144 12.6522 8.72974 12.7082 7.23174C12.7304 6.62293 12.6296 6.01591 12.4119 5.44692C12.1942 4.87794 11.8641 4.35867 11.4412 3.92013C11.0184 3.48159 10.5115 3.13278 9.95076 2.89454C9.39007 2.6563 8.78712 2.53351 8.17791 2.53351C7.5687 2.53351 6.96575 2.6563 6.40506 2.89454C5.84437 3.13278 5.33745 3.48159 4.91458 3.92013C4.49171 4.35867 4.16157 4.87794 3.94388 5.44692C3.72619 6.01591 3.62542 6.62293 3.64758 7.23174C3.70424 8.72974 4.53224 10.4144 5.89158 12.1231C6.53722 12.9325 7.24683 13.6887 8.01358 14.3844C8.08735 14.4511 8.14224 14.4995 8.17824 14.5297L8.34291 14.3844ZM7.68624 15.1611C7.68624 15.1611 2.84491 11.0837 2.84491 7.07174C2.84491 5.65725 3.40681 4.30069 4.40701 3.3005C5.4072 2.30031 6.76376 1.7384 8.17824 1.7384C9.59273 1.7384 10.9493 2.30031 11.9495 3.3005C12.9497 4.30069 13.5116 5.65725 13.5116 7.07174C13.5116 11.0837 8.67024 15.1611 8.67024 15.1611C8.40091 15.4091 7.95758 15.4064 7.68624 15.1611ZM8.17824 8.9384C8.67331 8.9384 9.14811 8.74174 9.49818 8.39167C9.84824 8.0416 10.0449 7.56681 10.0449 7.07174C10.0449 6.57667 9.84824 6.10187 9.49818 5.7518C9.14811 5.40174 8.67331 5.20507 8.17824 5.20507C7.68317 5.20507 7.20838 5.40174 6.85831 5.7518C6.50824 6.10187 6.31158 6.57667 6.31158 7.07174C6.31158 7.56681 6.50824 8.0416 6.85831 8.39167C7.20838 8.74174 7.68317 8.9384 8.17824 8.9384ZM8.17824 9.7384C7.471 9.7384 6.79272 9.45745 6.29262 8.95736C5.79253 8.45726 5.51158 7.77898 5.51158 7.07174C5.51158 6.36449 5.79253 5.68622 6.29262 5.18612C6.79272 4.68602 7.471 4.40507 8.17824 4.40507C8.88549 4.40507 9.56376 4.68602 10.0639 5.18612C10.564 5.68622 10.8449 6.36449 10.8449 7.07174C10.8449 7.77898 10.564 8.45726 10.0639 8.95736C9.56376 9.45745 8.88549 9.7384 8.17824 9.7384Z" fill="white"/>
</svg>
