<svg width="18" height="18" viewBox="0 0 18 18" fill="none" xmlns="http://www.w3.org/2000/svg">
<path d="M6.75 15.75H11.25M13.5 7.3125V8.4375C13.5 10.9125 11.475 12.9375 9 12.9375M9 12.9375C6.525 12.9375 4.5 10.9125 4.5 8.4375V7.3125M9 12.9375V15.75" stroke="#A39CFC" stroke-linecap="round" stroke-linejoin="round"/>
<path d="M9.00002 11.25C8.62878 11.2492 8.26151 11.1737 7.91999 11.0282C7.57847 10.8826 7.26968 10.6699 7.01194 10.4028C6.48433 9.8706 6.18807 9.15173 6.18752 8.40237V4.50002C6.18608 4.13027 6.25784 3.7639 6.39867 3.42202C6.53951 3.08014 6.74662 2.76952 7.00807 2.50807C7.26952 2.24662 7.58014 2.03951 7.92202 1.89867C8.2639 1.75784 8.63027 1.68608 9.00002 1.68752C10.5771 1.68752 11.8125 2.92291 11.8125 4.50002V8.40237C11.8125 9.97244 10.5508 11.25 9.00002 11.25Z" fill="#A39CFC"/>
</svg>
