<svg width="18" height="18" viewBox="0 0 18 18" fill="none" xmlns="http://www.w3.org/2000/svg">
<path d="M10.721 3.73503L14.264 7.27878C14.4716 7.48634 14.6138 7.75025 14.6729 8.03781C14.7319 8.32538 14.7053 8.62395 14.5963 8.89653L12.8225 13.3313C12.723 13.5795 12.5589 13.7967 12.3473 13.9602C12.1356 14.1237 11.8841 14.2277 11.6188 14.2613L7.80954 14.7375C7.71154 14.749 7.60904 14.763 7.50204 14.7795L7.16904 14.8335L6.99504 14.865L6.45279 14.97L6.08154 15.0488L5.52279 15.1748L4.80654 15.3458L3.64254 15.6428L3.15804 15.7733C3.03577 15.8069 2.90702 15.8093 2.78359 15.7802C2.66016 15.7512 2.546 15.6916 2.45158 15.6069C2.35715 15.5223 2.28549 15.4153 2.24316 15.2958C2.20083 15.1762 2.18918 15.048 2.20929 14.9228L2.23479 14.8133L2.45604 13.9793L2.65404 13.1933L2.82504 12.477L2.95029 11.9183L3.02904 11.5463L3.13479 11.0048L3.19479 10.662L3.24279 10.341L3.73779 6.38103C3.77148 6.11561 3.87554 5.86404 4.0392 5.65238C4.20286 5.44072 4.42014 5.27669 4.66854 5.17728L9.10329 3.40353C9.37587 3.29453 9.67444 3.26791 9.96201 3.32697C10.2496 3.38603 10.5135 3.52742 10.721 3.73503ZM7.93854 7.93878C7.74906 8.12839 7.61384 8.3653 7.54697 8.62488C7.4801 8.88447 7.48401 9.15722 7.55829 9.41478C7.50361 9.44679 7.45321 9.4856 7.40829 9.53028L4.36479 12.5738C4.34485 12.594 4.33106 12.6195 4.32504 12.6473L4.25829 12.936L4.12479 13.4933L4.06029 13.7565C4.05369 13.7818 4.05382 13.8084 4.06068 13.8337C4.06753 13.8589 4.08087 13.882 4.09937 13.9005C4.11787 13.919 4.14088 13.9323 4.16613 13.9391C4.19138 13.946 4.21798 13.9461 4.24329 13.9395L4.78104 13.8083L5.35329 13.6748C5.38088 13.6684 5.4061 13.6544 5.42604 13.6343L8.46954 10.5908C8.51417 10.5461 8.55298 10.4959 8.58504 10.4415C8.83918 10.5146 9.10811 10.5192 9.36459 10.4548C9.62106 10.3904 9.85597 10.2594 10.0455 10.075C10.235 9.89062 10.3724 9.6594 10.4438 9.40478C10.5152 9.15017 10.518 8.88121 10.4519 8.62517C10.3858 8.36912 10.2533 8.13509 10.0676 7.9468C9.88196 7.7585 9.64984 7.62262 9.39475 7.55294C9.13967 7.48326 8.8707 7.48224 8.6151 7.55C8.3595 7.61776 8.12635 7.75189 7.93929 7.93878H7.93854ZM11.432 2.32578C11.5611 2.19654 11.7329 2.11883 11.9151 2.10723C12.0974 2.09563 12.2776 2.15094 12.422 2.26278L12.4925 2.32578L15.6748 5.50728C15.8107 5.64194 15.8901 5.82346 15.8966 6.01469C15.903 6.20592 15.8362 6.39241 15.7097 6.53597C15.5832 6.67953 15.4066 6.76931 15.2161 6.78693C15.0255 6.80456 14.8355 6.7487 14.6848 6.63078L14.6135 6.56778L11.432 3.38628C11.2914 3.24564 11.2125 3.0549 11.2125 2.85603C11.2125 2.65716 11.2914 2.46643 11.432 2.32578Z" fill="#A39CFC"/>
</svg>
