<svg width="13" height="13" viewBox="0 0 13 13" fill="none" xmlns="http://www.w3.org/2000/svg">
<path d="M8.44608 1.63973C7.95198 1.10627 7.26186 0.8125 6.50015 0.8125C5.73436 0.8125 5.04196 1.10449 4.55015 1.63465C4.053 2.17064 3.81077 2.8991 3.86765 3.6857C3.98038 5.23758 5.1613 6.5 6.50015 6.5C7.83899 6.5 9.01788 5.23783 9.13239 3.68621C9.19003 2.90672 8.94628 2.17979 8.44608 1.63973ZM10.9689 12.1875H2.0314C1.91441 12.189 1.79856 12.1644 1.69227 12.1156C1.58598 12.0667 1.49192 11.9947 1.41694 11.9049C1.2519 11.7076 1.18538 11.4382 1.23464 11.1658C1.44893 9.97699 2.11772 8.97838 3.1689 8.27734C4.10276 7.65502 5.28571 7.3125 6.50015 7.3125C7.71458 7.3125 8.89753 7.65527 9.8314 8.27734C10.8826 8.97812 11.5514 9.97674 11.7657 11.1655C11.8149 11.438 11.7484 11.7074 11.5833 11.9046C11.5084 11.9945 11.4143 12.0665 11.3081 12.1154C11.2018 12.1644 11.0859 12.189 10.9689 12.1875Z" fill="#9091F3"/>
</svg>
