<svg width="16" height="16" viewBox="0 0 16 16" fill="none" xmlns="http://www.w3.org/2000/svg">
<path d="M8.00002 8.33331C7.38118 8.33331 6.78769 8.57915 6.3501 9.01673C5.91252 9.45432 5.66669 10.0478 5.66669 10.6666C5.66669 11.2855 5.91252 11.879 6.3501 12.3166C6.78769 12.7541 7.38118 13 8.00002 13C8.61886 13 9.21235 12.7541 9.64994 12.3166C10.0875 11.879 10.3334 11.2855 10.3334 10.6666C10.3334 10.0478 10.0875 9.45432 9.64994 9.01673C9.21235 8.57915 8.61886 8.33331 8.00002 8.33331ZM7.00002 10.6666C7.00002 10.4014 7.10538 10.1471 7.29291 9.95954C7.48045 9.772 7.7348 9.66665 8.00002 9.66665C8.26524 9.66665 8.51959 9.772 8.70713 9.95954C8.89466 10.1471 9.00002 10.4014 9.00002 10.6666C9.00002 10.9319 8.89466 11.1862 8.70713 11.3738C8.51959 11.5613 8.26524 11.6666 8.00002 11.6666C7.7348 11.6666 7.48045 11.5613 7.29291 11.3738C7.10538 11.1862 7.00002 10.9319 7.00002 10.6666Z" fill="white"/>
<path d="M11.684 3.41066L9.56467 0.439331L1.772 6.66466L1.34 6.66V6.66666H1L1 14.6667H15V6.66666H14.3587L13.0827 2.934L11.684 3.41066ZM12.95 6.66666L6.26467 6.66666L11.244 4.96933L12.2587 4.64466L12.95 6.66666ZM10.3667 3.86L5.22667 5.612L9.29733 2.36L10.3667 3.86ZM2.33333 12.1127L2.33333 9.21933C2.61478 9.12 2.87043 8.95893 3.08154 8.74794C3.29264 8.53696 3.45385 8.28139 3.55333 8L12.4467 8C12.5461 8.28152 12.7072 8.53721 12.9183 8.74832C13.1295 8.95943 13.3851 9.1206 13.6667 9.22V12.1133C13.3851 12.2127 13.1295 12.3739 12.9183 12.585C12.7072 12.7961 12.5461 13.0518 12.4467 13.3333H3.55467C3.45479 13.0518 3.29331 12.7961 3.08201 12.5849C2.87072 12.3737 2.61493 12.2124 2.33333 12.1127Z" fill="white"/>
</svg>
