<svg width="27" height="27" viewBox="0 0 27 27" fill="none" xmlns="http://www.w3.org/2000/svg">
<path d="M12.2144 1.16457C12.944 0.503623 14.056 0.503623 14.7856 1.16457C15.3208 1.64936 16.0831 1.79188 16.7573 1.53315C17.6764 1.1804 18.7132 1.58207 19.1548 2.46196C19.4788 3.10734 20.1382 3.51563 20.8603 3.51791C21.8447 3.52101 22.6665 4.27011 22.7604 5.25011C22.8293 5.96891 23.2967 6.58784 23.9692 6.85081C24.8861 7.20934 25.3817 8.20469 25.1153 9.15244C24.9198 9.84759 25.1321 10.5936 25.6642 11.0817C26.3896 11.7473 26.4922 12.8544 25.9014 13.6419C25.4681 14.2196 25.3965 14.9918 25.7163 15.6392C26.1524 16.5219 25.8481 17.5914 25.0127 18.1123C24.4 18.4943 24.0543 19.1886 24.1186 19.9078C24.2064 20.8884 23.5363 21.7757 22.5691 21.9597C21.8598 22.0946 21.2866 22.6171 21.0868 23.311C20.8144 24.2571 19.869 24.8424 18.9007 24.6646C18.1905 24.5341 17.4673 24.8143 17.0303 25.3892C16.4346 26.1729 15.3416 26.3772 14.5029 25.8616C13.8878 25.4834 13.1122 25.4834 12.4971 25.8616C11.6584 26.3772 10.5654 26.1729 9.96967 25.3892C9.53269 24.8143 8.80948 24.5341 8.09927 24.6646C7.13097 24.8424 6.1856 24.2571 5.9132 23.311C5.7134 22.6171 5.14024 22.0946 4.43086 21.9597C3.46371 21.7757 2.79363 20.8884 2.88137 19.9078C2.94573 19.1886 2.60003 18.4943 1.98729 18.1123C1.1519 17.5914 0.847607 16.5219 1.28365 15.6392C1.60348 14.9918 1.53192 14.2196 1.09857 13.6419C0.507766 12.8544 0.610361 11.7473 1.33581 11.0817C1.86791 10.5936 2.08016 9.84759 1.88474 9.15244C1.61831 8.20469 2.11393 7.20934 3.03082 6.85081C3.70333 6.58784 4.17072 5.96891 4.23961 5.25011C4.33354 4.27011 5.15526 3.52101 6.13974 3.51791C6.86184 3.51563 7.52125 3.10734 7.84515 2.46196C8.28675 1.58207 9.32358 1.1804 10.2427 1.53315C10.9169 1.79188 11.6792 1.64936 12.2144 1.16457Z" fill="url(#paint0_linear_246_715)"/>
<path fill-rule="evenodd" clip-rule="evenodd" d="M19.4125 8.71372C19.7613 9.02197 19.7939 9.55522 19.4856 9.90622L13.0169 17.2187C12.9422 17.3032 12.8513 17.3718 12.7496 17.4206C12.6479 17.4693 12.5375 17.4972 12.4249 17.5025C12.3122 17.5079 12.1997 17.4906 12.0938 17.4517C11.988 17.4128 11.891 17.3531 11.8086 17.2761L8.44061 14.1895C8.27832 14.0365 8.18317 13.8256 8.17598 13.6027C8.16878 13.3798 8.25012 13.1631 8.40222 13C8.55431 12.8369 8.76479 12.7407 8.98764 12.7323C9.21049 12.7239 9.42759 12.8041 9.59149 12.9554L12.3295 15.4457L18.2245 8.78572C18.298 8.70258 18.3872 8.63475 18.4869 8.58612C18.5867 8.53749 18.695 8.50902 18.8058 8.50233C18.9166 8.49564 19.0276 8.51087 19.1325 8.54714C19.2373 8.58342 19.334 8.64002 19.417 8.71372H19.4125Z" fill="white"/>
<defs>
<linearGradient id="paint0_linear_246_715" x1="25.5" y1="1" x2="7.5" y2="23" gradientUnits="userSpaceOnUse">
<stop stop-color="#7A45D7"/>
<stop offset="0.9172" stop-color="#390791"/>
</linearGradient>
</defs>
</svg>
