<svg width="14" height="11" viewBox="0 0 14 11" fill="none" xmlns="http://www.w3.org/2000/svg">
<path d="M13.1485 2.74504C13.0756 2.4722 12.9325 2.22323 12.7335 2.02293C12.5344 1.82263 12.2863 1.678 12.0139 1.60346C11.0135 1.33337 7.00016 1.33337 7.00016 1.33337C7.00016 1.33337 2.98683 1.33337 1.98641 1.60346C1.71403 1.678 1.46594 1.82263 1.26687 2.02293C1.0678 2.22323 0.924698 2.4722 0.851829 2.74504C0.583496 3.75304 0.583496 5.85421 0.583496 5.85421C0.583496 5.85421 0.583496 7.95537 0.851829 8.96337C0.924608 9.23632 1.06767 9.48541 1.26675 9.68582C1.46582 9.88623 1.71396 10.0309 1.98641 10.1055C2.98741 10.375 7.00016 10.375 7.00016 10.375C7.00016 10.375 11.0135 10.375 12.0139 10.1055C12.2864 10.0309 12.5345 9.88623 12.7336 9.68582C12.9327 9.48541 13.0757 9.23632 13.1485 8.96337C13.4168 7.95654 13.4168 5.85421 13.4168 5.85421C13.4168 5.85421 13.4168 3.75304 13.1485 2.74504ZM5.68766 7.76229V3.94671L9.04183 5.85479L5.68766 7.76229Z" stroke="#A39CFC" stroke-miterlimit="10" stroke-linejoin="round"/>
</svg>
