<svg width="54" height="54" viewBox="0 0 54 54" fill="none" xmlns="http://www.w3.org/2000/svg">
<g clip-path="url(#clip0_246_1653)">
<path d="M23.7697 37.2698L15.6118 38.0896C14.3182 38.2157 13.2632 37.7823 12.4469 36.7895C11.6306 35.7966 11.4155 34.6863 11.8017 33.4585L18.787 11.25C19.0831 10.3086 19.6719 9.60849 20.5536 9.1497C21.4352 8.69092 22.3464 8.60883 23.287 8.90343L40.4034 14.2871C41.3448 14.5832 42.0454 15.1722 42.5053 16.0542C42.9653 16.9362 43.0468 17.8472 42.7499 18.7871L35.7646 40.9956C35.3788 42.2222 34.5669 43.0096 33.3289 43.3575C32.0908 43.7054 30.9777 43.4569 29.9895 42.6119L23.7697 37.2698ZM24.9541 33.5042L32.3548 39.8761L39.3266 17.7103L22.2103 12.3267L15.2384 34.4924L24.9541 33.5042ZM30.7684 15.0185L22.2103 12.3267L39.3266 17.7103L30.7684 15.0185Z" fill="white"/>
</g>
<defs>
<clipPath id="clip0_246_1653">
<rect width="43" height="43" fill="white" transform="translate(12.9206) scale(1.00147) rotate(17.46)"/>
</clipPath>
</defs>
</svg>
