<svg width="54" height="54" viewBox="0 0 54 54" fill="none" xmlns="http://www.w3.org/2000/svg">
<g clip-path="url(#clip0_246_1704)">
<path d="M30.23 37.2698L24.0102 42.6119C23.0217 43.4557 21.9086 43.7043 20.6709 43.3575C19.4332 43.0107 18.6213 42.2233 18.2351 40.9955L11.2499 18.7871C10.9538 17.8457 11.0359 16.9346 11.4961 16.0537C11.9564 15.1728 12.6565 14.584 13.5964 14.2871L30.7128 8.90347C31.6542 8.60737 32.5659 8.68928 33.4478 9.14921C34.3298 9.60913 34.9181 10.3094 35.2127 11.25L42.198 33.4585C42.5838 34.6851 42.3688 35.7955 41.5528 36.7894C40.7369 37.7834 39.6819 38.2168 38.3879 38.0896L30.23 37.2698ZM29.0456 33.5042L38.7613 34.4924L31.7895 12.3267L14.6731 17.7104L21.6449 39.876L29.0456 33.5042ZM23.2313 15.0186L14.6731 17.7104L31.7895 12.3267L23.2313 15.0186Z" fill="white"/>
</g>
<defs>
<clipPath id="clip0_246_1704">
<rect width="43" height="43" fill="white" transform="translate(0 12.9207) scale(1.00147) rotate(-17.46)"/>
</clipPath>
</defs>
</svg>
