<svg width="43" height="43" viewBox="0 0 43 43" fill="none" xmlns="http://www.w3.org/2000/svg">
<path d="M21.4999 32.25L13.9749 35.475C12.7805 35.9826 11.6458 35.8859 10.5708 35.1848C9.49575 34.4836 8.95825 33.4904 8.95825 32.2052L8.95825 8.95833C8.95825 7.97292 9.30942 7.12964 10.0118 6.4285C10.7141 5.72736 11.5574 5.37619 12.5416 5.375L30.4583 5.375C31.4437 5.375 32.2875 5.72617 32.9899 6.4285C33.6922 7.13083 34.0428 7.97411 34.0416 8.95833V32.2052C34.0416 33.4892 33.5041 34.4824 32.4291 35.1848C31.3541 35.8871 30.2194 35.9838 29.0249 35.475L21.4999 32.25ZM21.4999 28.3083L30.4583 32.1604V8.95833L12.5416 8.95833L12.5416 32.1604L21.4999 28.3083ZM21.4999 8.95833H12.5416L30.4583 8.95833L21.4999 8.95833Z" fill="white"/>
</svg>
