<svg width="23" height="23" viewBox="0 0 23 23" fill="none" xmlns="http://www.w3.org/2000/svg">
<path fill-rule="evenodd" clip-rule="evenodd" d="M16.4228 5.37306C16.856 5.56606 17.0508 6.07443 16.8584 6.50986L12.8062 15.5957C12.7595 15.7006 12.6921 15.7951 12.6082 15.8736C12.5242 15.9521 12.4254 16.0129 12.3176 16.0526C12.2097 16.0922 12.095 16.1098 11.9802 16.1044C11.8655 16.0989 11.7529 16.0705 11.6493 16.0208L7.43177 14.0503C7.22725 13.9512 7.07026 13.7752 6.99512 13.5607C6.91998 13.3463 6.9328 13.1108 7.03078 12.9058C7.12875 12.7007 7.30392 12.5428 7.51798 12.4666C7.73205 12.3903 7.9676 12.4019 8.17315 12.4988L11.596 14.0824L15.29 5.80626C15.336 5.70297 15.402 5.60977 15.4841 5.532C15.5661 5.45424 15.6628 5.39343 15.7684 5.35306C15.874 5.31269 15.9866 5.29356 16.0996 5.29675C16.2127 5.29995 16.324 5.32541 16.4271 5.37168L16.4228 5.37306Z" fill="white"/>
</svg>
