<svg width="23" height="23" viewBox="0 0 23 23" fill="none" xmlns="http://www.w3.org/2000/svg">
<path fill-rule="evenodd" clip-rule="evenodd" d="M19.0435 9.29411C19.2882 9.70037 19.1569 10.2287 18.75 10.4756L10.2264 15.6059C10.1279 15.6652 10.0186 15.7041 9.90488 15.7204C9.79114 15.7367 9.67528 15.7301 9.56416 15.7008C9.45303 15.6716 9.3489 15.6204 9.2579 15.5502C9.16691 15.48 9.09091 15.3923 9.03438 15.2923L6.70423 11.2623C6.59323 11.064 6.56525 10.8298 6.62641 10.6109C6.68756 10.3921 6.83287 10.2063 7.03058 10.0943C7.22828 9.98226 7.4623 9.95305 7.68148 10.0131C7.90066 10.0731 8.08717 10.2174 8.20024 10.4145L10.1003 13.6724L17.8667 9.00089C17.9636 8.94254 18.071 8.90387 18.1828 8.8871C18.2946 8.87033 18.4087 8.87578 18.5184 8.90315C18.6281 8.93051 18.7314 8.97925 18.8222 9.04658C18.9131 9.1139 18.9897 9.19849 19.0479 9.29549L19.0435 9.29411Z" fill="white"/>
</svg>
