<svg width="18" height="18" viewBox="0 0 18 18" fill="none" xmlns="http://www.w3.org/2000/svg">
<path fill-rule="evenodd" clip-rule="evenodd" d="M15.4126 4.71372C15.7613 5.02197 15.7939 5.55522 15.4857 5.90622L9.01694 13.2187C8.94223 13.3032 8.85135 13.3718 8.74967 13.4206C8.64799 13.4693 8.53756 13.4972 8.42493 13.5025C8.31229 13.5079 8.19972 13.4906 8.09388 13.4517C7.98803 13.4128 7.89106 13.3531 7.80869 13.2761L4.44067 10.1895C4.27838 10.0365 4.18323 9.82556 4.17604 9.60267C4.16884 9.37977 4.25018 9.1631 4.40228 9C4.55437 8.8369 4.76485 8.74065 4.9877 8.73229C5.21055 8.72392 5.42766 8.80413 5.59155 8.95536L8.32956 11.4457L14.2246 4.78572C14.2981 4.70258 14.3872 4.63475 14.487 4.58612C14.5867 4.53749 14.6951 4.50902 14.8059 4.50233C14.9166 4.49564 15.0277 4.51087 15.1325 4.54714C15.2374 4.58342 15.3341 4.64002 15.4171 4.71372H15.4126Z" fill="white"/>
</svg>
