<svg width="26" height="26" viewBox="0 0 26 26" fill="none" xmlns="http://www.w3.org/2000/svg">
<path d="M11.6928 0.504037C12.4347 -0.168045 13.5653 -0.168045 14.3072 0.504036C14.8514 0.996992 15.6266 1.14191 16.3122 0.878819C17.2468 0.520135 18.3011 0.928571 18.7501 1.82328C19.0795 2.47953 19.75 2.8947 20.4842 2.89701C21.4853 2.90017 22.3209 3.66188 22.4164 4.65838C22.4864 5.3893 22.9617 6.01865 23.6455 6.28605C24.5778 6.65062 25.0818 7.66273 24.8109 8.62645C24.6122 9.33331 24.828 10.0918 25.3691 10.5882C26.1067 11.265 26.2111 12.3908 25.6103 13.1916C25.1697 13.7789 25.0969 14.5642 25.4221 15.2225C25.8655 16.12 25.5561 17.2075 24.7066 17.7372C24.0836 18.1257 23.732 18.8316 23.7975 19.563C23.8867 20.5601 23.2053 21.4623 22.2219 21.6494C21.5006 21.7866 20.9177 22.3179 20.7146 23.0235C20.4376 23.9855 19.4763 24.5807 18.4917 24.3998C17.7695 24.2672 17.0341 24.5521 16.5898 25.1366C15.984 25.9336 14.8726 26.1414 14.0198 25.6171C13.3943 25.2325 12.6057 25.2325 11.9802 25.6171C11.1274 26.1414 10.016 25.9336 9.41021 25.1366C8.96587 24.5521 8.23048 24.2672 7.5083 24.3998C6.5237 24.5807 5.56241 23.9855 5.28542 23.0235C5.08225 22.3179 4.49944 21.7866 3.77811 21.6494C2.79467 21.4623 2.1133 20.5601 2.20252 19.563C2.26797 18.8316 1.91644 18.1257 1.29338 17.7372C0.443918 17.2075 0.134502 16.12 0.577891 15.2225C0.903105 14.5642 0.830338 13.7789 0.389696 13.1916C-0.211062 12.3908 -0.106739 11.265 0.630931 10.5882C1.17199 10.0918 1.38782 9.33331 1.1891 8.62645C0.918185 7.66273 1.42216 6.65062 2.35448 6.28605C3.03832 6.01865 3.51359 5.3893 3.58364 4.65838C3.67915 3.66188 4.51471 2.90017 5.51577 2.89701C6.25003 2.8947 6.92055 2.47953 7.24991 1.82328C7.69895 0.928571 8.75324 0.520135 9.68785 0.878819C10.3734 1.14191 11.1486 0.996992 11.6928 0.504037Z" fill="url(#paint0_linear_246_1756)"/>
<defs>
<linearGradient id="paint0_linear_246_1756" x1="25.2021" y1="0.336694" x2="6.89894" y2="22.7072" gradientUnits="userSpaceOnUse">
<stop stop-color="#7A45D7"/>
<stop offset="0.9172" stop-color="#390791"/>
</linearGradient>
</defs>
</svg>
