<svg width="26" height="26" viewBox="0 0 26 26" fill="none" xmlns="http://www.w3.org/2000/svg">
<path d="M15.5646 0.666621C16.4742 0.247975 17.5532 0.587324 18.0594 1.45133C18.4307 2.08506 19.127 2.45601 19.8601 2.41071C20.8596 2.34895 21.743 3.05513 21.903 4.04367C22.0203 4.76874 22.5355 5.36616 23.2355 5.58875C24.1898 5.89222 24.7585 6.86985 24.5506 7.84942C24.398 8.56791 24.6627 9.31111 25.2349 9.77152C26.0152 10.3992 26.1923 11.5163 25.6446 12.3546C25.2428 12.9695 25.2211 13.7581 25.5884 14.3941C26.0892 15.2613 25.8508 16.3669 25.0372 16.9507C24.4405 17.3789 24.1353 18.1064 24.2481 18.8322C24.4018 19.8218 23.7801 20.7666 22.8106 21.0171C22.0994 21.2008 21.5521 21.769 21.395 22.4865C21.1809 23.4647 20.2599 24.1212 19.2653 24.0045C18.5358 23.919 17.8202 24.251 17.4146 24.8634C16.8615 25.6982 15.7656 25.9776 14.8803 25.5095C14.231 25.1662 13.4438 25.2174 12.8443 25.6418C12.027 26.2205 10.9042 26.0851 10.2478 25.3289C9.76631 24.7742 9.01376 24.5375 8.30146 24.7167C7.33033 24.9611 6.33215 24.4292 5.99328 23.4869C5.74473 22.7958 5.1285 22.3032 4.39955 22.213C3.40573 22.0901 2.66707 21.2336 2.69148 20.2325C2.70939 19.4982 2.31271 18.8163 1.66557 18.4689C0.783273 17.9952 0.403893 16.9297 0.788298 16.005C1.07025 15.3268 0.946694 14.5476 0.468751 13.9899C-0.182862 13.2295 -0.151723 12.0989 0.540756 11.3756C1.04867 10.845 1.21493 10.0738 0.970736 9.38107C0.63781 8.43663 1.07526 7.39364 1.98229 6.96927C2.64758 6.658 3.08119 5.99895 3.10373 5.26479C3.13445 4.26387 3.91913 3.44933 4.91822 3.38127C5.65102 3.33135 6.29343 2.87344 6.57965 2.19701C6.96988 1.27477 7.99582 0.798697 8.95202 1.09614C9.65337 1.31431 10.4178 1.11939 10.9291 0.592028C11.6261 -0.126966 12.7547 -0.200277 13.5389 0.422504C14.1141 0.879299 14.8973 0.973689 15.5646 0.666621Z" fill="url(#paint0_linear_246_1650)"/>
<defs>
<linearGradient id="paint0_linear_246_1650" x1="28.5059" y1="4.56161" x2="4.32609" y2="20.415" gradientUnits="userSpaceOnUse">
<stop stop-color="#7A45D7"/>
<stop offset="0.9172" stop-color="#390791"/>
</linearGradient>
</defs>
</svg>
