<svg width="26" height="26" viewBox="0 0 26 26" fill="none" xmlns="http://www.w3.org/2000/svg">
<path d="M7.90257 1.45133C8.40883 0.587321 9.48773 0.247971 10.3974 0.666617C11.0647 0.973685 11.8479 0.879295 12.4231 0.4225C13.2073 -0.200281 14.3359 -0.12697 15.0329 0.592024C15.5442 1.11939 16.3086 1.31431 17.01 1.09614C17.9662 0.798694 18.9921 1.27477 19.3823 2.197C19.6686 2.87344 20.311 3.33135 21.0438 3.38127C22.0428 3.44933 22.8275 4.26386 22.8583 5.26479C22.8808 5.99894 23.3144 6.65799 23.9797 6.96926C24.8867 7.39364 25.3242 8.43663 24.9912 9.38106C24.7471 10.0738 24.9133 10.845 25.4212 11.3755C26.1137 12.0989 26.1448 13.2295 25.4932 13.9899C25.0153 14.5476 24.8917 15.3268 25.1737 16.005C25.5581 16.9297 25.1787 17.9952 24.2964 18.4689C23.6493 18.8163 23.2526 19.4982 23.2705 20.2325C23.2949 21.2336 22.5563 22.0901 21.5624 22.213C20.8335 22.3032 20.2173 22.7958 19.9687 23.4869C19.6298 24.4292 18.6316 24.9611 17.6605 24.7167C16.9482 24.5375 16.1957 24.7742 15.7142 25.3289C15.0578 26.0851 13.9349 26.2205 13.1177 25.6418C12.5182 25.2173 11.731 25.1662 11.0816 25.5095C10.1964 25.9776 9.10043 25.6982 8.54739 24.8633C8.14175 24.251 7.42614 23.919 6.69664 24.0045C5.70206 24.1212 4.78107 23.4647 4.56695 22.4865C4.40989 21.769 3.86256 21.2008 3.15141 21.0171C2.18184 20.7666 1.56019 19.8218 1.71391 18.8322C1.82666 18.1064 1.52153 17.3789 0.924766 16.9507C0.111158 16.3669 -0.127195 15.2613 0.373601 14.3941C0.740923 13.7581 0.719203 12.9695 0.317428 12.3546C-0.230341 11.5163 -0.0532049 10.3992 0.727035 9.77152C1.29932 9.31111 1.56395 8.56791 1.41142 7.84942C1.20347 6.86985 1.77217 5.89221 2.72648 5.58874C3.42644 5.36616 3.94167 4.76874 4.05899 4.04367C4.21894 3.05513 5.10241 2.34895 6.1019 2.41071C6.835 2.45601 7.53125 2.08505 7.90257 1.45133Z" fill="url(#paint0_linear_246_1701)"/>
<defs>
<linearGradient id="paint0_linear_246_1701" x1="20.7435" y1="-2.76303" x2="9.99216" y2="24.0773" gradientUnits="userSpaceOnUse">
<stop stop-color="#7A45D7"/>
<stop offset="0.9172" stop-color="#390791"/>
</linearGradient>
</defs>
</svg>
