<svg width="16" height="16" viewBox="0 0 16 16" fill="none" xmlns="http://www.w3.org/2000/svg">
<path d="M8.00008 8.33331C7.38124 8.33331 6.78775 8.57915 6.35017 9.01673C5.91258 9.45432 5.66675 10.0478 5.66675 10.6666C5.66675 11.2855 5.91258 11.879 6.35017 12.3166C6.78775 12.7541 7.38124 13 8.00008 13C8.61892 13 9.21241 12.7541 9.65 12.3166C10.0876 11.879 10.3334 11.2855 10.3334 10.6666C10.3334 10.0478 10.0876 9.45432 9.65 9.01673C9.21241 8.57915 8.61892 8.33331 8.00008 8.33331ZM7.00008 10.6666C7.00008 10.4014 7.10544 10.1471 7.29297 9.95954C7.48051 9.772 7.73486 9.66665 8.00008 9.66665C8.2653 9.66665 8.51965 9.772 8.70719 9.95954C8.89472 10.1471 9.00008 10.4014 9.00008 10.6666C9.00008 10.9319 8.89472 11.1862 8.70719 11.3738C8.51965 11.5613 8.2653 11.6666 8.00008 11.6666C7.73486 11.6666 7.48051 11.5613 7.29297 11.3738C7.10544 11.1862 7.00008 10.9319 7.00008 10.6666Z" fill="white"/>
<path d="M11.684 3.41066L9.56467 0.439331L1.772 6.66466L1.34 6.66V6.66666H1L1 14.6667H15V6.66666H14.3587L13.0827 2.934L11.684 3.41066ZM12.95 6.66666L6.26467 6.66666L11.244 4.96933L12.2587 4.64466L12.95 6.66666ZM10.3667 3.86L5.22667 5.612L9.29733 2.36L10.3667 3.86ZM2.33333 12.1127L2.33333 9.21933C2.61478 9.12 2.87043 8.95893 3.08154 8.74794C3.29264 8.53696 3.45385 8.28139 3.55333 8L12.4467 8C12.5461 8.28152 12.7072 8.53721 12.9183 8.74832C13.1295 8.95943 13.3851 9.1206 13.6667 9.22V12.1133C13.3851 12.2127 13.1295 12.3739 12.9183 12.585C12.7072 12.7961 12.5461 13.0518 12.4467 13.3333H3.55467C3.45479 13.0518 3.29331 12.7961 3.08201 12.5849C2.87072 12.3737 2.61493 12.2124 2.33333 12.1127Z" fill="white"/>
</svg>
