<svg width="21" height="21" viewBox="0 0 21 21" fill="none" xmlns="http://www.w3.org/2000/svg">
<g clip-path="url(#clip0_246_1674)">
<path d="M10.3952 10.8328C9.77735 10.6385 9.10757 10.6975 8.53324 10.997C7.95891 11.2965 7.52707 11.8119 7.33273 12.4297C7.13839 13.0476 7.19746 13.7174 7.49694 14.2917C7.79643 14.8661 8.3118 15.2979 8.92968 15.4922C9.54757 15.6866 10.2173 15.6275 10.7917 15.328C11.366 15.0285 11.7978 14.5132 11.9922 13.8953C12.1865 13.2774 12.1275 12.6076 11.828 12.0333C11.5285 11.459 11.0131 11.0271 10.3952 10.8328ZM8.664 12.8485C8.74729 12.5837 8.93236 12.3628 9.17851 12.2344C9.42465 12.1061 9.7117 12.0808 9.9765 12.1641C10.2413 12.2474 10.4622 12.4324 10.5905 12.6786C10.7189 12.9247 10.7442 13.2118 10.6609 13.4766C10.5776 13.7414 10.3925 13.9622 10.1464 14.0906C9.90027 14.2189 9.61322 14.2443 9.34841 14.161C9.0836 14.0777 8.86273 13.8926 8.73438 13.6465C8.60603 13.4003 8.58071 13.1133 8.664 12.8485Z" fill="white"/>
<path d="M15.6194 7.07468L14.4364 3.44238L4.70078 7.21084L4.27091 7.07051L4.26882 7.07716L3.92934 6.97039L1.41698 14.958L15.3953 19.3547L17.9077 11.367L17.2674 11.1656L17.1656 7.038L15.6194 7.07468ZM15.8609 10.7232L9.18587 8.62373L14.6905 8.49276L15.8056 8.48725L15.8609 10.7232ZM14.163 7.10962L8.48069 7.24472L13.5663 5.27612L14.163 7.10962ZM3.55033 12.8267L4.45896 9.93784C4.77117 9.92705 5.07701 9.84651 5.35405 9.70215C5.63109 9.55778 5.8723 9.35324 6.06 9.10352L14.9396 11.8964C14.9504 12.2087 15.031 12.5146 15.1755 12.7917C15.32 13.0688 15.5247 13.31 15.7746 13.4977L14.8659 16.3865C14.5536 16.3974 14.2477 16.478 13.9706 16.6225C13.6936 16.767 13.4523 16.9717 13.2647 17.2215L4.38643 14.429C4.37512 14.1166 4.29419 13.8105 4.14954 13.5333C4.00489 13.2561 3.80017 13.0147 3.55033 12.8267Z" fill="white"/>
</g>
<defs>
<clipPath id="clip0_246_1674">
<rect width="16" height="16" fill="white" transform="translate(5.02462) scale(1.04668) rotate(17.46)"/>
</clipPath>
</defs>
</svg>
