<svg width="21" height="21" viewBox="0 0 21 21" fill="none" xmlns="http://www.w3.org/2000/svg">
<g clip-path="url(#clip0_246_1725)">
<path d="M10.6048 10.8328C9.98689 11.0272 9.47151 11.459 9.17203 12.0333C8.87254 12.6077 8.81347 13.2774 9.00781 13.8953C9.20216 14.5132 9.63399 15.0286 10.2083 15.3281C10.7827 15.6275 11.4524 15.6866 12.0703 15.4923C12.6882 15.2979 13.2036 14.8661 13.5031 14.2918C13.8025 13.7174 13.8616 13.0477 13.6673 12.4298C13.4729 11.8119 13.0411 11.2965 12.4668 10.997C11.8924 10.6975 11.2227 10.6385 10.6048 10.8328ZM10.3391 13.4766C10.2558 13.2118 10.2811 12.9247 10.4095 12.6786C10.5378 12.4325 10.7587 12.2474 11.0235 12.1641C11.2883 12.0808 11.5753 12.1061 11.8215 12.2345C12.0676 12.3628 12.2527 12.5837 12.336 12.8485C12.4193 13.1133 12.394 13.4003 12.2656 13.6465C12.1373 13.8926 11.9164 14.0777 11.6516 14.161C11.3868 14.2443 11.0997 14.219 10.8536 14.0906C10.6074 13.9623 10.4224 13.7414 10.3391 13.4766Z" fill="white"/>
<path d="M12.737 4.7608L9.6878 2.45963L3.86221 11.1226L3.42942 11.2536L3.43151 11.2602L3.09204 11.367L5.6044 19.3547L19.5828 14.958L17.0704 6.97039L16.4301 7.1718L13.9838 3.84563L12.737 4.7608ZM15.0236 7.61418L8.34856 9.71368L12.7872 6.45524L13.6983 5.81242L15.0236 7.61418ZM11.5628 5.62314L6.98096 8.98662L10.0241 4.46128L11.5628 5.62314ZM6.1336 16.3859L5.22496 13.497C5.47478 13.3095 5.67945 13.0683 5.82397 12.7914C5.96849 12.5144 6.04919 12.2086 6.06015 11.8964L14.9397 9.10353C15.1274 9.35339 15.3686 9.55808 15.6457 9.70256C15.9228 9.84705 16.2287 9.92767 16.541 9.9385L17.4496 12.8274C17.1998 13.015 16.9951 13.2562 16.8506 13.5333C16.7061 13.8104 16.6255 14.1163 16.6146 14.4286L7.73639 17.2211C7.54825 16.9714 7.30672 16.7668 7.02943 16.6223C6.75214 16.4778 6.44608 16.397 6.1336 16.3859Z" fill="white"/>
</g>
<defs>
<clipPath id="clip0_246_1725">
<rect width="16" height="16" fill="white" transform="translate(0 5.02474) scale(1.04668) rotate(-17.46)"/>
</clipPath>
</defs>
</svg>
