<svg width="16" height="16" viewBox="0 0 16 16" fill="none" xmlns="http://www.w3.org/2000/svg">
<path fill-rule="evenodd" clip-rule="evenodd" d="M8.16475 13.9793C8.93149 13.2836 9.64111 12.5274 10.2867 11.718C11.6467 10.0093 12.4741 8.32465 12.5301 6.82665C12.5522 6.21784 12.4515 5.61082 12.2338 5.04183C12.0161 4.47285 11.6859 3.95358 11.2631 3.51504C10.8402 3.0765 10.3333 2.72769 9.7726 2.48945C9.21191 2.25121 8.60895 2.12842 7.99975 2.12842C7.39054 2.12842 6.78758 2.25121 6.22689 2.48945C5.6662 2.72769 5.15929 3.0765 4.73642 3.51504C4.31355 3.95358 3.98341 4.47285 3.76572 5.04183C3.54803 5.61082 3.44726 6.21784 3.46941 6.82665C3.52608 8.32465 4.35408 10.0093 5.71341 11.718C6.35906 12.5274 7.06867 13.2836 7.83541 13.9793C7.90919 14.046 7.96408 14.0944 8.00008 14.1246L8.16475 13.9793ZM7.50808 14.756C7.50808 14.756 2.66675 10.6786 2.66675 6.66665C2.66675 5.25216 3.22865 3.8956 4.22885 2.89541C5.22904 1.89522 6.58559 1.33331 8.00008 1.33331C9.41457 1.33331 10.7711 1.89522 11.7713 2.89541C12.7715 3.8956 13.3334 5.25216 13.3334 6.66665C13.3334 10.6786 8.49208 14.756 8.49208 14.756C8.22275 15.004 7.77942 15.0013 7.50808 14.756ZM8.00008 8.53331C8.49515 8.53331 8.96995 8.33665 9.32001 7.98658C9.67008 7.63651 9.86675 7.16172 9.86675 6.66665C9.86675 6.17158 9.67008 5.69678 9.32001 5.34671C8.96995 4.99665 8.49515 4.79998 8.00008 4.79998C7.50501 4.79998 7.03022 4.99665 6.68015 5.34671C6.33008 5.69678 6.13341 6.17158 6.13341 6.66665C6.13341 7.16172 6.33008 7.63651 6.68015 7.98658C7.03022 8.33665 7.50501 8.53331 8.00008 8.53331ZM8.00008 9.33331C7.29284 9.33331 6.61456 9.05236 6.11446 8.55226C5.61437 8.05217 5.33341 7.37389 5.33341 6.66665C5.33341 5.9594 5.61437 5.28113 6.11446 4.78103C6.61456 4.28093 7.29284 3.99998 8.00008 3.99998C8.70733 3.99998 9.3856 4.28093 9.8857 4.78103C10.3858 5.28113 10.6667 5.9594 10.6667 6.66665C10.6667 7.37389 10.3858 8.05217 9.8857 8.55226C9.3856 9.05236 8.70733 9.33331 8.00008 9.33331Z" fill="white"/>
</svg>
