<svg width="21" height="21" viewBox="0 0 21 21" fill="none" xmlns="http://www.w3.org/2000/svg">
<g clip-path="url(#clip0_246_1669)">
<path fill-rule="evenodd" clip-rule="evenodd" d="M8.78657 16.5218C9.77062 16.0679 10.7166 15.5357 11.6154 14.9304C13.5099 13.6515 14.8651 12.2292 15.3914 10.7511C15.6047 10.1502 15.6947 9.51247 15.6561 8.87601C15.6174 8.23954 15.4509 7.61739 15.1664 7.04673C14.8819 6.47607 14.4853 5.9686 14.0003 5.55465C13.5153 5.14069 12.9518 4.82873 12.3435 4.63742C11.7353 4.4461 11.0947 4.37934 10.46 4.44113C9.82541 4.50293 9.20973 4.692 8.64979 4.99706C8.08986 5.30212 7.59716 5.71691 7.20112 6.21665C6.80507 6.71639 6.51382 7.29083 6.34475 7.90565C5.93089 9.41913 6.22855 11.3612 7.04919 13.4941C7.43965 14.505 7.91068 15.4829 8.45774 16.4184C8.51047 16.5081 8.55006 16.5737 8.57652 16.6152L8.78657 16.5218ZM7.88701 17.0911C7.88701 17.0911 4.33363 11.4996 5.59358 7.49383C6.03779 6.08153 7.02484 4.90353 8.3376 4.21899C9.65035 3.53445 11.1813 3.39943 12.5936 3.84365C14.0059 4.28786 15.1839 5.27491 15.8684 6.58767C16.553 7.90042 16.688 9.43134 16.2438 10.8436C14.9838 14.8494 8.86949 17.4001 8.86949 17.4001C8.52269 17.5631 8.08088 17.4212 7.88701 17.0911ZM10.3324 11.0325C10.8268 11.188 11.3626 11.1407 11.822 10.9011C12.2815 10.6616 12.627 10.2493 12.7824 9.75495C12.9379 9.26065 12.8907 8.72483 12.6511 8.26536C12.4115 7.8059 11.9992 7.46043 11.5049 7.30495C11.0106 7.14948 10.4748 7.19673 10.0153 7.43632C9.55583 7.67591 9.21036 8.08821 9.05488 8.58252C8.89941 9.07682 8.94666 9.61265 9.18625 10.0721C9.42584 10.5316 9.83814 10.877 10.3324 11.0325ZM10.0812 11.8313C9.37506 11.6092 8.78606 11.1156 8.44379 10.4593C8.10152 9.80289 8.03401 9.03743 8.25612 8.33128C8.47823 7.62513 8.97175 7.03613 9.62813 6.69386C10.2845 6.35159 11.05 6.28408 11.7561 6.50619C12.4623 6.7283 13.0513 7.22182 13.3935 7.8782C13.7358 8.53458 13.8033 9.30004 13.5812 10.0062C13.3591 10.7123 12.8656 11.3013 12.2092 11.6436C11.5528 11.9859 10.7874 12.0534 10.0812 11.8313Z" fill="white"/>
</g>
<defs>
<clipPath id="clip0_246_1669">
<rect width="16" height="16" fill="white" transform="translate(5.02462) scale(1.04668) rotate(17.46)"/>
</clipPath>
</defs>
</svg>
