<svg width="21" height="21" viewBox="0 0 21 21" fill="none" xmlns="http://www.w3.org/2000/svg">
<g clip-path="url(#clip0_246_1720)">
<path fill-rule="evenodd" clip-rule="evenodd" d="M12.5422 16.4184C13.0892 15.4829 13.5603 14.505 13.9507 13.4942C14.772 11.361 15.069 9.41915 14.6545 7.90588C14.4854 7.29106 14.1942 6.71662 13.7981 6.21688C13.4021 5.71714 12.9094 5.30235 12.3495 4.99729C11.7895 4.69222 11.1739 4.50315 10.5392 4.44136C9.90457 4.37956 9.26398 4.44632 8.65571 4.63764C8.04745 4.82896 7.48399 5.14091 6.99898 5.55487C6.51398 5.96883 6.11738 6.47629 5.83289 7.04695C5.5484 7.61761 5.38185 8.23976 5.34318 8.87623C5.30451 9.5127 5.39452 10.1504 5.60784 10.7513C6.13486 12.2292 7.49064 13.6513 9.38447 14.9304C10.2833 15.5358 11.2293 16.0679 12.2134 16.5218C12.308 16.5652 12.378 16.5963 12.4234 16.6152L12.5422 16.4184ZM12.1304 17.4001C12.1304 17.4001 6.01612 14.8495 4.75617 10.8437C4.31196 9.43136 4.44697 7.90044 5.13151 6.58768C5.81605 5.27493 6.99405 4.28787 8.40635 3.84366C9.81865 3.39945 11.3496 3.53446 12.6623 4.219C13.9751 4.90355 14.9621 6.08154 15.4063 7.49384C16.6663 11.4996 13.1129 17.0911 13.1129 17.0911C12.9219 17.4233 12.4784 17.5598 12.1304 17.4001ZM10.6675 11.0325C11.1618 10.8771 11.5741 10.5316 11.8137 10.0721C12.0533 9.61266 12.1005 9.07684 11.945 8.58253C11.7896 8.08823 11.4441 7.67593 10.9846 7.43634C10.5252 7.19675 9.98934 7.14949 9.49504 7.30497C9.00073 7.46044 8.58844 7.80591 8.34885 8.26538C8.10926 8.72484 8.062 9.26066 8.21748 9.75497C8.37295 10.2493 8.71842 10.6616 9.17788 10.9012C9.63735 11.1408 10.1732 11.188 10.6675 11.0325ZM10.9187 11.8313C10.2126 12.0534 9.4471 11.9859 8.79072 11.6436C8.13435 11.3014 7.64082 10.7124 7.41871 10.0062C7.19661 9.30005 7.26411 8.53459 7.60638 7.87822C7.94866 7.22184 8.53765 6.72831 9.2438 6.50621C9.94995 6.2841 10.7154 6.35161 11.3718 6.69388C12.0282 7.03615 12.5217 7.62515 12.7438 8.3313C12.9659 9.03745 12.8984 9.80291 12.5561 10.4593C12.2139 11.1157 11.6249 11.6092 10.9187 11.8313Z" fill="white"/>
</g>
<defs>
<clipPath id="clip0_246_1720">
<rect width="16" height="16" fill="white" transform="translate(0 5.02474) scale(1.04668) rotate(-17.46)"/>
</clipPath>
</defs>
</svg>
